<svg fill="currentColor" viewBox="0 0 20 20" xmlns="http://www.w3.org/2000/svg">
  <!-- Ascending arrow path -->
  <path d="M7.293 14.707a1 1 0 001.414 0L10 13.414l1.293 1.293a1 1 0 001.414-1.414l-2-2a1 1 0 00-1.414 0l-2 2a1 1 0 000 1.414zM7 6a1 1 0 011-1h4a1 1 0 110 2H8a1 1 0 01-1-1zM5 9a1 1 0 00-1 1v4a1 1 0 102 0v-4a1 1 0 00-1-1z" fill-rule="evenodd" clip-rule="evenodd" />

  <!-- Descending arrow path -->
  <path d="M12.707 5.293a1 1 0 00-1.414 0L10 6.586 8.707 5.293a1 1 0 00-1.414 1.414l2 2a1 1 0 001.414 0l2-2a1 1 0 000-1.414zM13 11a1 1 0 01-1 1H8a1 1 0 110-2h4a1 1 0 011 1zM15 9a1 1 0 011-1v4a1 1 0 11-2 0v-4a1 1 0 011-1z" fill-rule="evenodd" clip-rule="evenodd" />
</svg>
